<?xml version="1.0" encoding="UTF-8" ?>
<!DOCTYPE svg PUBLIC "-//W3C//DTD SVG 1.1//EN" "http://www.w3.org/Graphics/SVG/1.1/DTD/svg11.dtd">
<svg width="299pt" height="147pt" viewBox="0 0 299 147" version="1.1" xmlns="http://www.w3.org/2000/svg">
<path fill="#ffffff" d=" M 0.00 0.00 L 299.00 0.00 L 299.00 147.00 L 0.00 147.00 L 0.00 0.00 Z" />
<path fill="#bd701d" d=" M 110.32 8.39 C 115.07 5.56 121.63 9.49 121.76 14.90 C 122.72 19.61 119.21 25.36 113.98 24.80 C 110.30 25.16 107.01 22.22 106.16 18.77 C 105.00 14.92 106.76 10.33 110.32 8.39 Z" />
<path fill="#bd701d" d=" M 61.12 14.20 C 71.30 14.24 81.48 14.18 91.66 14.22 C 91.62 16.56 91.57 18.90 91.47 21.23 C 89.39 21.53 86.69 21.27 85.42 23.36 C 84.02 25.62 84.03 28.39 83.87 30.95 C 83.77 42.31 83.99 53.67 83.81 65.02 C 83.68 71.68 82.40 78.72 78.14 84.05 C 73.65 89.63 65.92 91.19 59.11 90.51 C 55.02 89.91 50.76 88.21 48.26 84.78 C 45.65 81.29 45.86 76.01 48.73 72.74 C 51.70 69.33 58.09 69.47 60.43 73.54 C 62.20 76.10 61.08 79.21 60.82 82.02 C 62.30 82.82 64.06 83.16 65.69 82.62 C 68.00 81.25 68.43 78.34 68.53 75.90 C 68.76 57.99 68.27 40.07 68.84 22.17 C 66.27 22.22 63.70 22.27 61.13 22.32 C 61.15 19.62 61.15 16.91 61.12 14.20 Z" />
<path fill="#bd701d" d=" M 147.99 35.08 C 154.99 33.16 162.99 32.96 169.48 36.59 C 175.12 39.89 177.38 46.74 177.40 52.96 C 177.44 62.34 177.39 71.73 177.17 81.12 C 179.39 80.95 181.62 80.80 183.84 80.67 C 183.87 83.39 183.88 86.11 183.89 88.83 C 177.21 88.81 170.52 89.00 163.84 88.77 C 163.27 87.29 163.36 85.66 163.13 84.12 C 157.17 90.24 147.09 92.84 139.34 88.72 C 131.68 84.36 130.63 72.76 136.44 66.45 C 142.95 59.11 153.35 57.60 162.59 56.65 C 162.27 52.13 163.58 46.58 159.94 43.07 C 156.37 40.08 151.36 41.82 147.85 44.01 C 148.55 46.35 149.50 48.97 148.33 51.34 C 146.49 55.31 140.66 56.48 137.44 53.53 C 134.87 51.32 134.85 47.48 135.72 44.47 C 137.70 39.36 142.92 36.42 147.99 35.08 Z" />
<path fill="#bd701d" d=" M 204.13 35.32 C 206.22 34.31 208.57 34.40 210.83 34.32 C 211.07 36.12 211.26 37.91 211.47 39.71 C 217.19 35.91 224.11 32.73 231.13 34.06 C 235.25 34.65 239.36 36.71 241.55 40.37 C 244.64 45.31 244.83 51.35 245.09 56.99 C 245.08 65.00 245.31 73.02 244.66 81.01 C 246.97 80.90 249.28 80.79 251.60 80.69 C 251.62 83.42 251.63 86.15 251.60 88.89 C 242.24 88.90 232.87 88.89 223.50 88.87 C 223.49 86.67 223.49 84.47 223.50 82.28 C 226.19 81.87 229.37 80.56 229.51 77.39 C 230.11 70.62 229.68 63.81 229.75 57.03 C 229.65 52.71 229.42 47.29 225.37 44.68 C 220.70 42.24 215.43 44.65 211.48 47.36 C 211.38 58.59 211.78 69.83 211.16 81.05 C 213.33 80.90 215.51 80.76 217.69 80.59 C 218.16 83.31 218.22 86.08 218.04 88.84 C 208.66 88.91 199.28 88.86 189.90 88.85 C 189.90 86.65 189.91 84.45 189.92 82.24 C 192.81 81.91 195.97 80.33 196.01 77.01 C 196.83 66.51 195.78 55.94 196.74 45.44 C 194.20 45.53 191.67 45.61 189.13 45.66 C 189.18 42.99 189.20 40.33 189.22 37.67 C 194.25 37.46 199.44 37.37 204.13 35.32 Z" />
<path fill="#bd701d" d=" M 113.30 35.30 C 115.52 34.20 118.05 34.48 120.45 34.40 C 120.28 49.99 120.85 65.59 120.11 81.16 C 122.34 80.98 124.57 80.81 126.81 80.67 C 126.91 83.38 126.95 86.09 126.97 88.81 C 117.61 88.87 108.25 88.83 98.90 88.82 C 98.88 86.66 98.87 84.50 98.87 82.35 C 101.72 81.89 104.95 80.43 105.00 77.07 C 105.84 66.55 104.81 55.94 105.73 45.41 C 103.23 45.50 100.74 45.59 98.25 45.67 C 98.27 43.01 98.28 40.34 98.29 37.67 C 103.35 37.50 108.59 37.41 113.30 35.30 Z" />
<path fill="#ffffff" d=" M 149.74 69.78 C 152.83 66.00 157.93 65.12 162.46 64.31 C 162.49 68.50 162.50 72.69 162.33 76.87 C 159.15 79.08 155.12 81.43 151.19 79.69 C 147.38 78.08 147.27 72.61 149.74 69.78 Z" />
<path fill="#bd701d" d=" M 166.18 114.12 C 167.38 113.63 168.59 113.13 169.79 112.64 C 169.84 118.82 169.87 125.01 169.77 131.20 C 170.44 131.68 171.11 132.15 171.78 132.62 C 171.02 132.80 169.51 133.17 168.75 133.35 C 166.40 133.14 163.93 134.20 161.67 133.34 C 158.45 131.21 158.43 125.78 161.46 123.45 C 163.16 121.83 165.66 122.30 167.78 122.15 C 167.58 119.43 168.45 116.20 166.18 114.12 Z" />
<path fill="#bd701d" d=" M 69.17 117.19 C 72.91 114.10 78.06 115.30 82.33 116.38 C 82.29 117.89 82.26 119.39 82.23 120.91 C 80.57 118.02 77.72 115.30 74.08 116.31 C 65.81 117.69 66.84 131.94 74.98 132.71 C 78.47 133.51 80.97 130.77 83.34 128.72 C 82.54 130.13 82.13 131.87 80.87 132.95 C 76.81 134.06 71.89 134.51 68.54 131.45 C 64.16 127.88 64.71 120.46 69.17 117.19 Z" />
<path fill="#bd701d" d=" M 178.99 115.68 C 183.19 115.97 188.33 114.03 191.79 117.23 C 194.53 119.76 193.06 124.44 189.91 125.88 C 188.18 126.33 186.38 126.13 184.63 126.19 C 184.68 128.19 184.74 130.19 184.83 132.19 C 185.96 132.55 187.11 132.92 188.24 133.30 C 185.44 133.49 182.63 133.52 179.83 133.46 C 180.59 132.94 181.36 132.42 182.13 131.90 C 182.19 126.88 182.22 121.85 182.09 116.82 C 181.05 116.44 180.02 116.06 178.99 115.68 Z" />
<path fill="#ffffff" d=" M 184.68 116.13 C 186.99 116.22 190.17 116.59 190.57 119.44 C 191.47 123.00 188.06 125.71 184.72 125.46 C 184.67 122.35 184.67 119.24 184.68 116.13 Z" />
<path fill="#bd701d" d=" M 217.49 119.84 C 217.52 120.39 217.59 121.48 217.63 122.02 C 218.47 122.02 220.15 122.02 221.00 122.03 C 221.16 122.43 221.48 123.24 221.65 123.64 C 220.19 123.75 218.75 123.96 217.30 124.09 C 217.40 126.61 217.27 129.14 217.58 131.65 C 218.44 133.12 220.33 131.53 221.58 131.53 C 220.20 133.10 217.98 135.05 216.05 133.03 C 214.55 129.92 216.00 126.18 214.49 123.01 C 215.48 121.95 216.49 120.89 217.49 119.84 Z" />
<path fill="#bd701d" d=" M 90.54 121.69 C 94.73 121.25 98.53 125.86 96.88 129.87 C 95.52 134.48 88.29 135.20 85.97 131.04 C 83.55 127.42 86.20 122.01 90.54 121.69 Z" />
<path fill="#bd701d" d=" M 98.08 122.99 C 99.44 122.32 100.80 121.66 102.16 121.01 C 102.19 124.72 102.26 128.44 102.25 132.16 C 104.58 132.89 107.92 133.11 108.38 129.97 C 109.60 126.01 106.36 123.39 103.21 121.91 C 104.89 121.99 107.02 121.33 108.46 122.60 C 111.33 125.24 111.17 130.50 107.91 132.78 C 106.32 134.12 104.09 133.60 102.20 133.85 C 102.24 135.92 102.26 137.98 102.30 140.05 C 103.19 140.51 104.09 140.96 105.00 141.42 C 102.74 141.40 100.49 141.41 98.24 141.48 C 98.90 140.97 99.57 140.46 100.23 139.95 C 100.25 134.64 100.26 129.32 100.22 124.01 C 99.69 123.76 98.61 123.25 98.08 122.99 Z" />
<path fill="#bd701d" d=" M 133.18 125.89 C 133.65 123.28 136.30 120.75 139.03 121.98 C 142.70 123.78 140.71 128.64 141.12 131.82 C 142.74 132.04 144.37 132.21 146.00 132.39 C 146.01 129.59 146.01 126.79 145.99 124.00 C 145.48 123.74 144.45 123.21 143.94 122.95 C 145.71 122.16 147.96 120.16 148.64 123.25 C 150.08 122.63 151.51 121.96 153.06 121.62 C 156.83 123.32 155.29 128.27 155.51 131.51 C 156.10 132.18 156.70 132.84 157.30 133.51 C 155.51 133.50 153.73 133.49 151.94 133.48 C 152.49 132.79 153.03 132.10 153.58 131.41 C 153.46 128.93 153.81 126.35 152.99 123.97 C 151.49 122.70 147.74 123.60 148.17 126.07 C 148.06 128.07 148.12 130.08 148.14 132.08 C 148.62 132.44 149.57 133.15 150.05 133.50 C 147.21 133.53 144.37 132.85 141.54 133.34 C 140.45 133.71 139.44 133.10 138.43 132.78 C 138.62 131.63 139.01 129.31 139.21 128.15 C 137.63 129.03 136.10 129.99 134.62 131.02 C 135.57 131.52 137.46 132.51 138.40 133.00 C 136.61 133.96 134.07 134.13 133.22 131.86 C 133.00 128.50 137.51 129.00 139.10 126.96 C 139.52 125.10 138.65 123.43 137.32 122.20 C 136.16 123.67 135.00 125.19 133.18 125.89 Z" />
<path fill="#bd701d" d=" M 194.95 125.89 C 194.84 122.34 199.76 120.11 202.03 123.07 C 203.50 125.82 201.95 129.34 203.45 132.16 C 204.19 131.28 204.92 130.38 205.62 129.46 L 203.96 131.64 C 205.98 131.07 207.55 132.24 209.10 133.22 C 209.68 132.84 210.83 132.08 211.40 131.70 C 209.71 129.13 206.98 127.52 205.19 125.03 C 206.48 123.48 208.00 121.07 210.39 121.76 C 212.16 121.85 211.93 123.92 212.50 125.12 C 211.33 124.26 210.19 123.36 208.98 122.56 C 208.49 123.12 207.52 124.24 207.03 124.80 C 208.97 126.65 212.59 127.70 212.72 130.81 C 212.61 134.20 207.38 134.77 205.60 132.46 C 204.32 132.94 203.05 133.42 201.79 133.92 C 201.39 133.49 200.59 132.62 200.20 132.19 C 198.79 134.14 195.86 134.42 194.81 131.98 C 194.22 128.79 198.33 128.45 200.52 128.19 C 200.27 126.58 201.20 124.50 199.83 123.26 C 198.61 121.33 197.31 124.05 196.71 124.98 C 196.27 125.21 195.39 125.66 194.95 125.89 Z" />
<path fill="#bd701d" d=" M 222.38 126.04 C 222.82 123.46 225.21 120.80 228.01 121.92 C 231.73 123.41 229.79 128.20 230.27 131.22 C 230.70 131.63 231.57 132.45 232.00 132.85 C 230.66 133.73 229.13 134.00 227.98 132.65 C 226.42 133.65 223.66 134.56 222.71 132.34 C 221.51 128.85 226.43 128.51 228.55 127.25 C 228.42 125.29 227.96 123.41 226.26 122.23 C 225.24 123.77 224.06 125.21 222.38 126.04 Z" />
<path fill="#bd701d" d=" M 111.43 121.92 C 113.44 122.03 115.45 122.12 117.46 122.18 C 116.98 122.50 116.01 123.13 115.53 123.45 C 116.70 125.99 117.90 128.53 119.28 130.96 C 120.20 128.56 121.07 126.14 121.94 123.72 C 121.37 123.32 120.24 122.53 119.68 122.14 C 121.44 122.10 123.21 122.04 124.98 121.96 C 120.42 127.49 119.65 135.10 115.89 141.11 C 115.31 142.19 114.14 141.15 113.53 140.70 C 115.95 138.60 118.96 135.09 117.28 131.72 C 115.63 128.30 114.39 124.49 111.43 121.92 Z" />
<path fill="#ffffff" d=" M 89.13 122.89 C 94.25 121.21 97.07 130.09 93.00 132.74 C 87.56 134.40 85.18 125.79 89.13 122.89 Z" />
<path fill="#ffffff" d=" M 161.65 129.93 C 160.28 127.17 162.10 122.26 165.71 123.25 C 169.39 124.71 167.17 129.70 167.55 132.70 C 165.45 132.26 162.33 132.57 161.65 129.93 Z" />
<path fill="#ffffff" d=" M 199.57 129.18 C 202.00 129.83 198.94 133.33 197.43 131.77 C 196.47 130.47 198.33 129.08 199.57 129.18 Z" />
<path fill="#ffffff" d=" M 223.71 131.09 C 225.23 130.01 226.81 129.02 228.42 128.09 C 228.43 129.72 228.03 131.23 227.22 132.62 C 226.34 132.24 224.59 131.47 223.71 131.09 Z" />
</svg>
